<svg width="22" height="22" viewBox="0 0 22 22" fill="none" xmlns="http://www.w3.org/2000/svg">
<path d="M5.44434 8.40761C5.44434 7.6217 5.75654 6.86798 6.31228 6.31226C6.86801 5.75654 7.62174 5.44434 8.40767 5.44434H18.0366C18.4257 5.44434 18.811 5.52098 19.1706 5.6699C19.5301 5.81882 19.8568 6.03709 20.1319 6.31226C20.4071 6.58742 20.6254 6.91409 20.7743 7.27361C20.9232 7.63313 20.9999 8.01846 20.9999 8.40761V18.0363C20.9999 18.4254 20.9232 18.8108 20.7743 19.1703C20.6254 19.5298 20.4071 19.8565 20.1319 20.1316C19.8568 20.4068 19.5301 20.6251 19.1706 20.774C18.811 20.9229 18.4257 20.9996 18.0366 20.9996H8.40767C8.01852 20.9996 7.63318 20.9229 7.27365 20.774C6.91412 20.6251 6.58745 20.4068 6.31228 20.1316C6.03711 19.8565 5.81883 19.5298 5.66991 19.1703C5.52098 18.8108 5.44434 18.4254 5.44434 18.0363V8.40761Z" stroke="black" stroke-width="2" stroke-linecap="round" stroke-linejoin="round"/>
<path d="M2.12444 16.263C1.78333 16.0692 1.49961 15.7886 1.30211 15.4496C1.10461 15.1106 1.00038 14.7254 1 14.333V3.22217C1 1.99998 2 1 3.22222 1H14.3333C15.1667 1 15.62 1.42777 16 2.11109M9.88889 13.222H16.5556M13.2222 9.8887V16.5552" stroke="black" stroke-width="2" stroke-linecap="round" stroke-linejoin="round"/>
</svg>
