<svg width="36" height="38" viewBox="0 0 36 38" fill="none" xmlns="http://www.w3.org/2000/svg">
<path d="M17.9999 0.25C14.2702 0.25 10.6934 1.73158 8.05616 4.36881C5.41893 7.00604 3.93735 10.5829 3.93735 14.3125V21.8156L0.924853 29.3594C0.8305 29.5963 0.795566 29.8527 0.8231 30.1062C0.850634 30.3597 0.939799 30.6027 1.08281 30.8138C1.22583 31.0249 1.41834 31.1978 1.64356 31.3174C1.86878 31.4371 2.11984 31.4997 2.37485 31.5H11.7499C11.7499 34.9625 14.5374 37.75 17.9999 37.75C21.4624 37.75 24.2499 34.9625 24.2499 31.5H33.6249C33.8799 31.4997 34.1309 31.4371 34.3561 31.3174C34.5814 31.1978 34.7739 31.0249 34.9169 30.8138C35.0599 30.6027 35.1491 30.3597 35.1766 30.1062C35.2041 29.8527 35.1692 29.5963 35.0748 29.3594L32.0623 21.8125V14.3125C32.0623 10.5829 30.5808 7.00604 27.9435 4.36881C25.3063 1.73158 21.7295 0.25 17.9999 0.25ZM21.1249 31.5C21.1249 33.2375 19.7374 34.625 17.9999 34.625C16.2624 34.625 14.8749 33.2375 14.8749 31.5H21.1249ZM7.06235 14.3125C7.06235 11.4117 8.21469 8.6297 10.2659 6.57852C12.3171 4.52734 15.099 3.375 17.9999 3.375C20.9007 3.375 23.6827 4.52734 25.7338 6.57852C27.785 8.6297 28.9374 11.4117 28.9374 14.3125V22.1187C28.9379 22.3168 28.976 22.513 29.0499 22.6969L31.3186 28.375H4.6811L6.94985 22.6969C7.02366 22.513 7.06184 22.3168 7.06235 22.1187V14.3125Z" fill="#828282"/>
</svg>
