<svg width="38" height="42" viewBox="0 0 38 42" fill="none" xmlns="http://www.w3.org/2000/svg">
<path d="M27.3335 2.25V10.5833M10.6668 2.25V10.5833M2.3335 18.9167H35.6668M16.9168 27.25H19.0002V33.5M2.3335 10.5833C2.3335 9.47826 2.77248 8.41846 3.55388 7.63705C4.33529 6.85565 5.39509 6.41667 6.50016 6.41667H31.5002C32.6052 6.41667 33.665 6.85565 34.4464 7.63705C35.2278 8.41846 35.6668 9.47826 35.6668 10.5833V35.5833C35.6668 36.6884 35.2278 37.7482 34.4464 38.5296C33.665 39.311 32.6052 39.75 31.5002 39.75H6.50016C5.39509 39.75 4.33529 39.311 3.55388 38.5296C2.77248 37.7482 2.3335 36.6884 2.3335 35.5833V10.5833Z" stroke="#828282" stroke-width="3" stroke-linecap="round" stroke-linejoin="round"/>
</svg>
